<?xml version="1.0" encoding="iso-8859-1"?>
<!-- Generator: Adobe Illustrator 18.0.0, SVG Export Plug-In . SVG Version: 6.00 Build 0)  -->
<!DOCTYPE svg PUBLIC "-//W3C//DTD SVG 1.1//EN" "http://www.w3.org/Graphics/SVG/1.1/DTD/svg11.dtd">
<svg version="1.1" id="_x34_" xmlns="http://www.w3.org/2000/svg" xmlns:xlink="http://www.w3.org/1999/xlink" x="0px" y="0px"
	 viewBox="0 0 512 512" style="enable-background:new 0 0 512 512;" xml:space="preserve">
<g>
	<g>
		<g>
			<path style="fill:#F3EDDC;" d="M507.886,210.365c0.782,4.17,1.412,8.319,1.955,12.512c-0.022,0.022,0,0.043,0,0.043
				c0.043,0.13,0.043,0.304,0.043,0.478c0.717,5.409,1.238,10.883,1.586,16.356c0.087,1.39,0.152,2.759,0.239,4.149
				c0.391,8.167,0.391,16.378-0.022,24.567c-0.043,0.912-0.087,1.824-0.152,2.715c-0.304,5.257-0.76,10.535-1.434,15.77
				c-0.086,0.826-0.174,1.651-0.326,2.411c-0.022,0.022-0.043,0.044-0.044,0.087c-0.456,3.584-0.934,7.06-1.542,10.578
				c-8.689,50.177-32.43,98.247-71.16,136.977c-46.81,46.81-107.262,71.681-168.561,74.679c-2.346,0.087-4.692,0.174-7.038,0.217
				c-4.497,0.109-8.95,0.087-13.446-0.065c-1.368-0.022-2.737-0.087-4.105-0.152c-61.424-2.91-121.98-27.8-168.876-74.69
				L437.019,74.984C475.33,113.299,498.96,160.778,507.886,210.365z"/>
			<path style="fill:#F3EDDC;" d="M436.994,75.003l-1.943,2.021l-1.944,1.866l-11.506,11.506l-5.753,5.753l-2.177,2.176
				l-12.439,12.439l-4.354,4.354l-2.799,2.799l-4.897,4.898l-3.032,3.032l-41.515,41.515l-0.622,0.622l-8.63,8.629l-4.586,4.587
				l-138.15,138.149L181.296,330.7l-25.344,25.344l-9.641,9.64l-19.824,19.824l-8.241,8.319l-8.863,8.785l-5.442,5.442l-3.965,3.965
				l-0.156,0.155l-2.254,2.255l-5.753,5.753l-0.855,0.855l-12.206,12.206l-2.021,2.099l-1.711,1.632l-1.399-1.399
				c-0.777-0.855-1.555-1.633-2.332-2.488h-0.078c-1.633-1.632-3.187-3.343-4.82-5.131c-5.053-5.598-9.796-11.273-14.227-17.181
				c-10.34-13.449-19.125-27.754-26.355-42.603c-12.128-24.878-19.902-51.311-23.556-78.21c0,0,0,0,0.078,0
				c-0.078-0.389-0.156-0.778-0.156-1.089c-0.544-3.887-0.933-7.774-1.244-11.661c0-0.156-0.078-0.156,0-0.233
				c-0.078-0.311-0.078-0.622-0.156-1.01c0-0.778-0.078-1.633-0.156-2.488c-0.078-1.788-0.233-3.576-0.311-5.364
				c-0.078-1.322-0.078-2.721-0.156-4.043v-0.078C0,260.809,0,257.699,0,254.512l0.077-3.965c0.078-1.944,0.156-3.887,0.233-5.753
				c0-0.467,0-0.856,0.078-1.244c0-0.544,0-1.011,0.078-1.555c0.077-1.944,0.155-3.887,0.311-5.753
				c0.233-2.799,0.466-5.675,0.855-8.474C7.385,175.835,28.92,125.302,66.47,84.098c0.078-0.155,0.233-0.311,0.311-0.466
				c0.156-0.155,0.311-0.311,0.466-0.466c2.488-2.799,5.131-5.519,7.774-8.163c2.41-2.488,4.82-4.82,7.386-7.074
				c0.466-0.466,0.933-0.856,1.399-1.244C120.89,32.788,165.515,11.875,212.005,3.79c3.499-0.622,7.075-1.166,10.651-1.555
				c0.778-0.156,1.555-0.233,2.255-0.311c0,0,0,0,0.077,0c3.887-0.467,7.852-0.856,11.817-1.166
				c1.322-0.156,2.721-0.233,4.043-0.311h0.078c0.389,0,0.777-0.078,1.166-0.078c0.466,0,0.933,0,1.399-0.078h0.078
				c3.576-0.156,7.23-0.233,10.884-0.233c1.399-0.077,2.799-0.077,4.198,0c1.788,0,3.576,0.078,5.364,0.156
				c1.322,0,2.643,0.078,3.965,0.156c0,0,0.078,0,0.156,0c1.322,0,2.643,0.078,4.042,0.155c0.078,0,0.078,0,0.078,0h0.311
				c0.077,0,0.233,0.078,0.389,0.078c2.254,0.156,4.509,0.311,6.764,0.544c1.244,0.078,2.566,0.233,3.809,0.389h0.466
				c1.477,0.233,3.11,0.389,4.587,0.544c0.077,0,0.155,0.078,0.233,0.078h0.311c4.198,0.544,8.396,1.166,12.595,1.944
				c3.964,0.7,7.929,1.555,11.894,2.488c3.654,0.777,7.23,1.71,10.806,2.643c20.602,5.753,40.659,14.072,59.551,25.034
				c8.396,4.898,16.559,10.262,24.489,16.171c6.764,4.975,13.371,10.417,19.746,16.248c0.078,0,0.078,0.078,0.078,0.078
				c1.011,0.855,1.944,1.788,2.954,2.643c1.322,1.244,2.643,2.488,3.887,3.732L436.994,75.003z"/>
		</g>
		<g>
			<g>
				<g>
					<path style="fill:#E9D9D0;" d="M438.16,420.182c-2.876-3.11-5.676-6.375-8.396-9.64l-0.078-0.078
						c-6.064-7.386-11.661-15.004-16.715-23.09c-2.41-3.576-4.587-7.152-6.686-10.884v-0.078
						c-4.742-8.241-8.94-16.715-12.672-25.578c-1.71-3.887-3.265-7.852-4.664-11.895c-3.265-8.941-5.986-18.036-8.163-27.366v-0.078
						c-1.011-4.12-1.866-8.241-2.566-12.439v-0.078c-1.71-9.251-2.799-18.736-3.343-28.299v-0.077
						c-0.311-4.198-0.467-8.474-0.467-12.75v-1.866c0-9.018,0.467-17.881,1.477-26.666v-0.078c0.389-4.198,1.011-8.396,1.71-12.594
						c1.477-9.485,3.576-18.814,6.22-27.91v-0.078c1.166-4.042,2.487-8.085,3.887-12.05c3.109-9.096,6.764-17.881,10.884-26.433
						c1.866-3.809,3.809-7.619,5.831-11.272c0,0,0-0.078,0.078-0.078c4.509-8.396,9.64-16.404,15.16-24.178
						c2.488-3.421,5.053-6.841,7.697-10.185c5.209-6.452,10.651-12.672,16.559-18.58c0.466-0.622,1.011-1.166,1.633-1.788
						l0.077-0.077c-0.544-0.544-1.011-1.166-1.632-1.71c-2.255-2.488-4.587-4.898-6.997-7.308l-1.866-1.866
						c-1.244-1.244-2.566-2.488-3.887-3.732c-1.011-0.855-1.943-1.788-2.954-2.643c0,0,0-0.078-0.078-0.078
						c-0.622,0.622-1.166,1.166-1.71,1.788c-6.219,6.297-12.206,12.983-17.803,19.98c-2.954,3.654-5.753,7.308-8.396,11.195
						c-0.078,0-0.078,0.078-0.078,0.078c-6.142,8.474-11.739,17.259-16.793,26.433c-0.077,0-0.077,0.078-0.077,0.078
						c-0.933,1.71-1.866,3.421-2.799,5.209c-1.244,2.41-2.488,4.82-3.654,7.23c-4.665,9.407-8.707,19.125-12.128,29.076
						c-1.633,4.431-3.032,8.941-4.354,13.45c-2.876,10.029-5.209,20.135-6.997,30.631v0.077c-0.777,4.587-1.399,9.251-1.944,13.916
						v0.078c-1.089,9.951-1.71,19.902-1.71,30.087v1.322c0.078,4.742,0.155,9.329,0.466,13.994
						c0.622,10.573,1.788,20.913,3.654,31.175v0.078c0.778,4.664,1.711,9.251,2.799,13.76c2.333,10.34,5.287,20.369,8.863,30.164
						c1.555,4.431,3.265,8.785,5.131,13.061c0,0.077,0,0.077,0,0.077c4.042,9.718,8.707,19.047,13.838,28.143
						c0,0,0.078,0.078,0,0.078c2.332,4.121,4.665,8.163,7.23,12.05c5.676,8.863,11.817,17.259,18.348,25.344l0.077,0.078
						c2.954,3.654,5.986,7.23,9.174,10.729c2.877,3.188,5.831,6.297,8.863,9.329c0.078-0.078,0.078-0.078,0.156-0.078
						c0.933-0.855,1.944-1.866,2.876-2.721c1.244-1.166,2.41-2.255,3.576-3.499c0.777-0.7,1.477-1.399,2.176-2.099
						c0.311-0.311,0.7-0.699,1.011-1.011l2.799-2.877c1.089-1.089,2.177-2.332,3.266-3.498l0.699-0.699
						c0.233-0.311,0.544-0.622,0.855-0.933l-0.077-0.078C442.98,425.391,440.57,422.825,438.16,420.182z"/>
				</g>
				<g>
					<g>
						<path style="opacity:0;fill:#FFFFFF;" d="M440.795,433.117l-2.765,2.857c-2.212,2.274-4.454,4.454-6.758,6.605
							c-1.69-2.734-1.29-6.359,1.075-8.571C434.712,431.766,438.153,431.52,440.795,433.117z"/>
					</g>
					<g>
						<path style="fill:#E0E0E0;" d="M389.714,444.416c4.075-3.32,10.472-2.419,14.309,1.996c3.832,4.419,4.187,10.693,0.375,14.394
							c-3.727,3.624-10.453,3.021-14.591-1.74C385.666,454.308,385.64,447.735,389.714,444.416z"/>
						<path style="fill:#E0E0E0;" d="M451.493,393.392c4.074-3.319,9.632-3.447,12.379-0.254c2.744,3.196,2.175,8.517-1.636,12.217
							c-3.727,3.624-9.53,3.975-12.58,0.437C446.605,402.255,447.418,396.711,451.493,393.392z"/>
						<path style="fill:#CE1531;" d="M408.043,408.062c4.215,1.492,8.593,2.324,12.707,2.66c1.76,0.144,3.486,0.192,5.155,0.142
							c9.42-0.326,17.6-4.241,23.021-11.674c1.52-2.07,3.931-3.245,6.254-2.136c2.331,1.078,3.246,3.928,2.293,6.231
							c-1.622,3.725-4.146,7.259-7.533,10.44c-3.635,3.414-7.327,5.369-11.578,6.384c-4.22,0.986-8.874,0.936-14.591,0.479
							c-3.26-0.251-6.758-0.711-10.609-1.311c-1.385-0.202-2.797-0.408-4.268-0.623c-2.814-0.421-5.396-2.902-5.538-5.901
							C403.161,409.761,405.315,407.146,408.043,408.062z"/>
						<path style="fill:#BA1A2E;" d="M415.397,410.92c1.853-0.005,3.633-0.078,5.353-0.198c1.76,0.144,3.486,0.192,5.155,0.142
							c-0.693,3.399-1.406,6.607-2.134,9.724c-3.26-0.251-6.758-0.711-10.609-1.311C413.952,416.629,414.693,413.839,415.397,410.92
							z"/>
						<path style="fill:#CE1531;" d="M412.058,449.291c-3.391,3.184-7.226,5.344-11.527,6.244c-2.745,0.613-5.996-1.61-7.372-4.734
							c-1.356-3.139,0.086-5.44,2.507-6.471c6.95-2.978,11.091-8.731,13.49-15.674c1.24-3.512,2.097-7.379,2.604-11.383
							c0.512-4.01,0.652-8.145,0.757-12.461c0.036-2.854,3.228-4.017,5.848-3.04c2.572,1.018,4.225,3.773,3.869,6.497
							C419.665,428.181,422.14,439.875,412.058,449.291z"/>
						<path style="opacity:0;fill:#FFFFFF;" d="M404.841,400.121c3.171-2.125,7.491-1.392,9.647,1.639
							c2.121,3.057,1.482,7.345-1.517,9.644c-3.061,2.346-7.453,1.667-9.716-1.587C400.958,406.588,401.67,402.246,404.841,400.121z
							"/>
					</g>
					<g>
						<path style="fill:#E0E0E0;" d="M361.193,403.106c4.633-2.62,10.522-0.487,13.713,4.418c3.156,4.927,2.201,11.336-2.109,14.298
							c-4.353,2.991-10.634,1.099-14.035-4.219C355.328,412.305,356.674,405.655,361.193,403.106z"/>
						<path style="fill:#E0E0E0;" d="M430.693,363.232c4.633-2.618,9.861-1.652,12.181,1.86c2.286,3.531,0.576,8.84-3.733,11.801
							c-4.354,2.991-9.88,2.2-12.411-1.722C424.167,371.267,426.174,365.782,430.693,363.232z"/>
						<path style="fill:#CE1531;" d="M385.313,370.404c4.045,2.112,8.088,3.739,12.036,4.791c1.702,0.443,3.446,0.753,5.115,0.977
							c9.462,1.2,17.957-1.154,24.656-7.623c1.861-1.791,4.421-2.535,6.467-1.021c2.129,1.445,2.709,4.306,1.303,6.464
							c-2.263,3.422-5.363,6.492-9.238,9.057c-8.254,5.476-15.923,5.233-26.937,2.352c-3.089-0.845-6.479-1.878-10.263-3.069
							c-1.357-0.406-2.72-0.844-4.107-1.331c-2.668-0.909-4.679-3.852-4.423-6.776C380.182,371.269,382.727,369.067,385.313,370.404
							z"/>
						<path style="fill:#BA1A2E;" d="M392.104,374.454c1.805,0.32,3.549,0.56,5.245,0.742c1.702,0.443,3.446,0.753,5.115,0.977
							c-1.173,3.185-2.455,6.25-3.748,9.229c-3.089-0.845-6.479-1.878-10.263-3.069
							C389.612,379.892,390.887,377.228,392.104,374.454z"/>
						<path style="fill:#CE1531;" d="M382.325,411.732c-3.879,2.568-8.005,4.039-12.36,4.177c-2.733,0.092-5.724-2.549-6.569-5.853
							c-0.755-3.357,1.069-5.392,3.616-5.992c7.315-1.739,12.393-6.731,15.999-13.212c1.815-3.254,3.192-6.854,4.379-10.722
							c1.237-3.896,2.184-8.006,2.882-12.173c0.467-2.781,3.829-3.397,6.3-2.019c2.473,1.382,3.52,4.436,2.675,7.078
							C393.436,392.164,393.886,404.118,382.325,411.732z"/>
						<path style="opacity:0;fill:#FFFFFF;" d="M383.581,362c3.501-1.565,7.516-0.056,9.119,3.298
							c1.697,3.309,0.331,7.433-3.047,9.21c-3.378,1.777-7.583,0.36-9.387-3.169C378.558,367.765,380.112,363.55,383.581,362z"/>
					</g>
					<g>
						<path style="fill:#E0E0E0;" d="M339.927,357.583c4.931-1.763,10.684,1.219,12.836,6.665
							c2.105,5.467,0.401,11.486-4.436,13.713c-4.709,2.172-10.901-0.621-13.183-6.518
							C332.817,365.566,334.961,359.359,339.927,357.583z"/>
						<path style="fill:#E0E0E0;" d="M415.188,330.09c4.93-1.763,10.229-0.046,11.753,3.865c1.479,3.931-0.786,8.732-5.622,10.959
							c-4.709,2.173-10.341,0.597-11.997-3.763C407.623,336.808,410.221,331.867,415.188,330.09z"/>
						<path style="fill:#CE1531;" d="M369.339,329.421c3.469,2.818,7.32,5.063,11.089,6.752c1.611,0.722,3.223,1.343,4.814,1.853
							c8.965,2.843,18.008,1.862,25.588-3.33c2.122-1.443,4.788-1.748,6.611,0.064c1.831,1.79,1.775,4.762,0.069,6.63
							c-2.767,2.968-6.322,5.459-10.574,7.33c-4.564,2.01-8.698,2.627-13.05,2.172c-4.267-0.491-8.672-2.073-13.907-4.411
							c-2.997-1.321-6.116-2.931-9.558-4.778c-1.239-0.653-2.501-1.319-3.817-2.013c-2.514-1.336-4.121-4.54-3.25-7.415
							C364.171,329.389,367.075,327.646,369.339,329.421z"/>
						<path style="fill:#BA1A2E;" d="M375.314,334.573c1.749,0.613,3.452,1.139,5.114,1.6c1.611,0.722,3.223,1.343,4.814,1.853
							c-1.785,2.971-3.552,5.766-5.263,8.456c-2.997-1.321-6.116-2.931-9.558-4.778
							C372.048,339.471,373.677,337.088,375.314,334.573z"/>
						<path style="fill:#CE1531;" d="M359.374,369.651c-4.257,1.874-8.595,2.634-12.956,2.049c-2.754-0.354-5.116-3.526-5.368-6.937
							c-0.238-3.415,1.887-5.105,4.515-5.269c7.55-0.488,13.369-4.534,17.939-10.279c2.365-2.908,4.443-6.261,6.262-9.869
							c1.819-3.609,3.331-7.459,4.877-11.492c0.99-2.678,4.386-2.706,6.527-0.911c2.08,1.819,2.718,4.966,1.476,7.413
							C373.573,352.263,372.018,364.128,359.374,369.651z"/>
						<path style="opacity:0;fill:#FFFFFF;" d="M368.981,320.865c3.7-0.941,7.524,1.195,8.54,4.771
							c0.975,3.589-1.064,7.417-4.656,8.582c-3.67,1.189-7.581-0.92-8.624-4.745C363.157,325.661,365.281,321.806,368.981,320.865z"
							/>
					</g>
					<g>
						<path style="fill:#E0E0E0;" d="M326.851,309.053c5.257-0.918,10.029,3.075,11.447,8.761
							c1.322,5.705-1.751,11.435-6.775,12.777c-5.131,1.369-10.389-2.528-11.813-8.687
							C318.194,315.764,321.754,309.94,326.851,309.053z"/>
						<path style="fill:#E0E0E0;" d="M405.694,294.771c5.256-0.919,9.798,1.758,10.857,5.824c0.967,4.085-2.451,8.518-7.475,9.859
							c-5.132,1.37-10.045-1.229-11.113-5.768C396.806,300.164,400.595,295.656,405.694,294.771z"/>
						<path style="fill:#CE1531;" d="M360.553,286.322c3.1,3.345,6.297,6.243,9.718,8.549c1.491,0.982,2.997,1.864,4.5,2.633
							c8.493,4.304,17.276,4.933,25.764,1.081c2.364-1.066,4.997-0.904,6.443,1.201c1.545,2.067,1.106,4.958-0.937,6.519
							c-3.282,2.465-7.233,4.32-11.743,5.44c-9.623,2.4-16.72-0.403-26.172-6.799c-2.62-1.832-5.459-3.943-8.616-6.335
							c-1.125-0.852-2.271-1.72-3.465-2.624c-2.198-1.751-3.09-5.2-1.856-7.87C355.436,285.417,358.577,284.194,360.553,286.322z"/>
						<path style="fill:#BA1A2E;" d="M365.56,292.417c1.602,0.905,3.111,1.724,4.711,2.454c1.491,0.982,2.997,1.864,4.5,2.633
							c-2.18,2.61-4.422,5.068-6.645,7.443c-2.62-1.832-5.459-3.943-8.616-6.335C361.444,296.696,363.433,294.63,365.56,292.417z"/>
						<path style="fill:#CE1531;" d="M343.868,324.272c-4.514,1.121-8.894,1.126-13.041-0.206c-2.61-0.829-4.519-4.329-4.233-7.723
							c0.388-3.412,2.816-4.724,5.407-4.434c7.469,0.814,13.93-2.189,19.511-7.091c2.789-2.457,5.356-5.398,7.704-8.634
							c2.456-3.254,4.763-6.813,6.829-10.508c1.383-2.466,4.753-1.919,6.607,0.208c1.854,2.133,1.8,5.364,0.108,7.572
							C360.909,309.544,357.318,320.964,343.868,324.272z"/>
						<path style="opacity:0;fill:#FFFFFF;" d="M361.711,277.827c3.86-0.307,6.997,2.474,7.52,6.158
							c0.47,3.689-2.214,7.12-5.993,7.662c-3.778,0.543-7.249-2.204-7.746-6.135C354.942,281.586,357.96,278.122,361.711,277.827z"
							/>
					</g>
					<g>
						<path style="fill:#E0E0E0;" d="M322.094,259.106c5.256-0.02,9.627,4.7,9.788,10.54c0.327,5.835-3.479,10.944-8.736,11.42
							c-5.212,0.475-9.925-4.236-10.275-10.528C312.69,264.245,316.839,259.125,322.094,259.106z"/>
						<path style="fill:#E0E0E0;" d="M402.216,258.28c5.255-0.019,9.62,3.386,9.704,7.608c0.252,4.208-3.673,7.993-8.929,8.47
							c-5.213,0.473-9.807-2.913-10.082-7.577C392.805,262.105,396.96,258.299,402.216,258.28z"/>
						<path style="fill:#CE1531;" d="M359.092,242.364c2.51,3.816,5.304,7.211,8.262,10.059c1.264,1.218,2.563,2.341,3.881,3.352
							c7.726,5.671,16.346,7.778,25.312,5.405c2.489-0.655,5.096-0.051,6.182,2.278c0.542,1.158,0.558,2.431,0.148,3.568
							c-0.356,1.132-1.125,2.13-2.255,2.723c-3.615,1.876-7.805,3.036-12.439,3.377c-9.898,0.736-16.552-3.223-24.652-11.13
							c-2.277-2.247-4.888-4.804-7.478-7.689c-0.939-1.027-1.896-2.075-2.892-3.165c-1.907-2.095-2.264-5.643-0.64-8.07
							C354.212,240.62,357.595,239.941,359.092,242.364z"/>
						<path style="fill:#BA1A2E;" d="M363.103,249.213c1.432,1.16,2.849,2.222,4.251,3.21c1.264,1.218,2.563,2.341,3.881,3.352
							c-2.572,2.207-5.142,4.255-7.704,6.22c-2.277-2.247-4.888-4.804-7.478-7.689C358.349,252.744,360.699,251.041,363.103,249.213
							z"/>
						<path style="fill:#CE1531;" d="M336.36,276.935c-4.639,0.342-8.974-0.393-12.873-2.4c-1.225-0.631-2.186-1.88-2.717-3.388
							c-0.478-1.509-0.537-3.276-0.065-4.919c0.943-3.289,3.518-4.171,6.043-3.451c7.26,2.054,14.11,0.188,20.372-3.701
							c6.158-3.907,12.319-9.841,17.496-16.431c1.871-2.194,5.021-1.098,6.48,1.309c1.511,2.415,0.972,5.596-1.033,7.491
							c-3.71,3.442-6.724,6.72-9.434,9.692c-2.744,2.973-5.243,5.641-7.737,7.898C348.05,273.543,343.249,276.425,336.36,276.935z"
							/>
						<path style="opacity:0;fill:#FFFFFF;" d="M361.712,234.184c3.802,0.338,6.657,3.619,6.374,7.328
							c-0.258,3.71-3.307,6.653-7.16,6.553c-3.779-0.096-6.912-3.39-6.641-7.341C354.582,236.773,357.91,233.846,361.712,234.184z"
							/>
					</g>
					<g>
						<path style="fill:#E0E0E0;" d="M325.766,209.083c5.12,0.854,8.665,6.25,7.956,12.059c-0.829,5.798-5.311,10.207-10.574,9.8
							c-5.216-0.404-9.202-5.839-8.319-12.096C315.595,212.579,320.518,208.211,325.766,209.083z"/>
						<path style="fill:#E0E0E0;" d="M404.892,221.702c5.119,0.852,8.882,4.932,8.37,9.107c-0.629,4.16-5.009,7.253-10.271,6.845
							c-5.218-0.402-9.306-4.522-8.622-9.141C394.938,223.879,399.643,220.829,404.892,221.702z"/>
						<path style="fill:#CE1531;" d="M365.143,198.796c0.877,2.085,1.815,4.072,2.858,5.955c1.107,1.896,2.285,3.68,3.531,5.337
							c1.062,1.416,2.174,2.744,3.321,3.965c6.421,6.844,14.783,10.39,23.936,9.544c2.552-0.229,5.034,0.804,5.761,3.28
							c0.729,2.459-0.694,5.04-3.158,5.835c-3.962,1.235-8.188,1.691-12.84,1.25c-10.007-0.941-15.551-5.91-22.449-15.09
							c-1.995-2.615-3.814-5.521-5.995-8.822c-0.77-1.174-1.554-2.371-2.371-3.618c-0.78-1.199-1.125-2.688-1.027-4.146
							c0.163-1.445,0.775-2.856,1.817-3.907C360.637,196.253,364.019,196.141,365.143,198.796z"/>
						<path style="fill:#BA1A2E;" d="M367.828,206.199c1.235,1.388,2.472,2.677,3.705,3.889c1.062,1.416,2.174,2.744,3.321,3.965
							c-2.934,1.738-5.98,3.298-8.75,4.819c-1.995-2.615-3.814-5.521-5.995-8.822C362.61,208.891,365.184,207.602,367.828,206.199z"
							/>
						<path style="fill:#CE1531;" d="M336.822,229.07c-4.605-0.436-8.855-1.891-12.279-4.514c-2.169-1.643-2.761-5.568-1.323-8.667
							c1.435-3.098,4.11-3.539,6.49-2.403c6.877,3.254,13.817,2.538,20.726-0.236c3.474-1.39,6.907-3.309,10.238-5.579
							c1.666-1.135,3.302-2.358,4.913-3.649c1.683-1.276,3.337-2.62,4.954-4.015c2.157-1.86,5.143-0.231,6.15,2.382
							c0.504,1.31,0.46,2.717,0.001,3.989c-0.394,1.285-1.212,2.435-2.341,3.201c-4.095,2.791-7.753,5.495-10.977,7.962
							c-3.155,2.478-6.025,4.697-8.828,6.512C348.89,227.676,343.66,229.712,336.822,229.07z"/>
						<path style="opacity:0;fill:#FFFFFF;" d="M368.984,191.145c3.638,0.965,5.989,4.704,5.143,8.324
							c-0.825,3.625-4.579,5.955-8.271,5.227c-3.798-0.75-6.078-4.472-5.199-8.337C361.559,192.501,365.242,190.154,368.984,191.145
							z"/>
					</g>
					<g>
						<path style="fill:#E0E0E0;" d="M337.924,160.32c5.016,1.749,7.34,7.596,5.723,13.225c-1.609,5.631-7.025,9.16-12.121,7.872
							c-5.095-1.286-7.85-7.266-6.108-13.344C327.171,161.999,333.017,158.605,337.924,160.32z"/>
						<path style="fill:#E0E0E0;" d="M413.75,186.217c5.015,1.749,7.781,6.324,6.64,10.364c-1.132,4.042-6.216,6.265-11.311,4.979
							c-5.096-1.287-8.181-5.962-6.917-10.45C403.438,186.624,408.841,184.501,413.75,186.217z"/>
						<path style="fill:#CE1531;" d="M378.408,156.856c1.086,4.435,2.534,8.548,4.353,12.21c0.758,1.559,1.703,3.084,2.631,4.483
							c5.354,7.903,12.735,12.729,22.012,13.492c2.573,0.216,4.823,1.648,5.041,4.183c0.276,2.535-1.441,4.869-3.998,5.235
							c-4.058,0.559-8.408,0.258-12.893-0.958c-9.549-2.578-14.488-8.51-19.558-18.674c-1.408-2.879-2.874-6.109-4.482-9.741
							c-0.599-1.291-1.135-2.592-1.698-3.96c-1.079-2.605-0.199-6.061,2.165-7.799C374.372,153.57,377.704,154.029,378.408,156.856z
							"/>
						<path style="fill:#BA1A2E;" d="M379.854,164.634c0.952,1.567,1.924,3.037,2.907,4.432c0.758,1.559,1.703,3.084,2.631,4.483
							c-3.163,1.222-6.308,2.282-9.395,3.278c-1.408-2.879-2.874-6.109-4.482-9.741
							C374.106,166.343,376.984,165.556,379.854,164.634z"/>
						<path style="fill:#CE1531;" d="M345.401,181.906c-4.489-1.216-8.321-3.345-11.306-6.529c-1.864-1.99-1.902-6,0.069-8.805
							c2.02-2.787,4.751-2.761,6.884-1.243c6.138,4.35,13.237,4.867,20.48,3.295c3.648-0.783,7.231-2.136,10.952-3.786
							c3.741-1.643,7.45-3.645,11.038-5.871c2.395-1.485,5.077,0.636,5.675,3.402c0.596,2.771-1.004,5.574-3.544,6.683
							C367.421,177.316,358.739,185.555,345.401,181.906z"/>
						<path style="opacity:0;fill:#FFFFFF;" d="M383.585,150.011c3.481,1.596,5.016,5.618,3.532,9.026
							c-1.362,3.46-5.358,5.156-8.923,3.791c-3.565-1.366-5.277-5.462-3.82-9.148C375.954,150.046,380.127,148.424,383.585,150.011z
							"/>
					</g>
					<g>
						<path style="fill:#E0E0E0;" d="M358.107,114.302c4.548,2.524,6.131,8.827,3.458,14.035c-2.735,5.178-8.364,7.879-13.234,5.711
							c-4.734-2.102-6.739-8.61-3.798-14.203C347.414,114.222,353.464,111.725,358.107,114.302z"/>
						<path style="fill:#E0E0E0;" d="M428.428,152.708c4.546,2.525,6.779,7.655,4.843,11.384c-1.997,3.701-7.079,5.173-11.948,3.006
							c-4.735-2.103-7.287-7.383-5.084-11.499C418.383,151.456,423.784,150.132,428.428,152.708z"/>
						<path style="fill:#CE1531;" d="M398.666,117.813c0.19,4.476,0.999,8.822,2.243,12.784c0.522,1.688,1.121,3.31,1.79,4.843
							c3.757,8.602,10.484,14.763,19.379,17.027c2.484,0.642,4.474,2.444,4.316,5.013c-0.14,2.557-2.389,4.488-4.942,4.428
							c-4.054-0.121-8.27-1.148-12.482-3.109c-4.52-2.103-7.718-4.806-10.241-8.374c-2.432-3.525-4.165-7.886-5.863-13.363
							c-0.991-3.126-1.81-6.516-2.713-10.332c-0.328-1.362-0.663-2.751-1.012-4.198c-0.679-2.785,0.71-6.077,3.432-7.328
							C395.274,113.91,398.499,114.938,398.666,117.813z"/>
						<path style="fill:#BA1A2E;" d="M398.73,125.696c0.696,1.72,1.426,3.347,2.179,4.901c0.522,1.688,1.121,3.31,1.79,4.843
							c-3.396,0.628-6.694,1.128-9.834,1.623c-0.991-3.126-1.81-6.516-2.713-10.332C392.901,126.479,395.764,126.129,398.73,125.696
							z"/>
						<path style="fill:#CE1531;" d="M361.863,136.866c-4.217-1.963-7.651-4.722-10.091-8.385c-1.527-2.292-0.725-6.168,1.674-8.606
							c2.405-2.433,5.076-1.951,6.934-0.085c5.357,5.355,12.214,7.046,19.572,6.704c3.744-0.142,7.629-0.796,11.535-1.813
							c3.886-1.03,7.822-2.408,11.858-3.919c2.659-1.029,4.926,1.505,4.996,4.302c0.018,2.772-1.97,5.302-4.604,5.998
							c-9.752,2.438-17.026,5.463-23.53,6.992C373.632,139.557,368.155,139.792,361.863,136.866z"/>
						<path style="opacity:0;fill:#FFFFFF;" d="M404.847,111.891c3.127,2.141,4.072,6.439,2.06,9.566
							c-2.022,3.122-6.286,4.092-9.529,2.165c-3.32-1.974-4.275-6.278-2.122-9.605C397.4,110.685,401.674,109.719,404.847,111.891z"
							/>
					</g>
					<g>
						<path style="fill:#E0E0E0;" d="M385.868,72.473c4.142,3.321,4.394,9.609,0.987,14.365c-3.399,4.762-9.68,6.269-14.051,3.351
							c-4.371-2.917-4.97-9.467-1.3-14.601C375.184,70.462,381.813,69.216,385.868,72.473z"/>
						<path style="fill:#E0E0E0;" d="M448.699,122.196c4.142,3.321,5.223,8.572,2.786,12.004c-2.427,3.438-7.968,3.838-12.339,0.921
							c-4.372-2.918-5.711-8.361-3.013-12.171C438.844,119.148,444.642,118.939,448.699,122.196z"/>
						<path style="fill:#CE1531;" d="M425.176,82.716c-0.449,4.546-0.451,8.91,0.045,12.973c0.189,1.718,0.564,3.465,0.975,5.098
							c2.41,9.24,7.754,16.261,16.244,20.074c2.353,1.061,3.995,3.164,3.353,5.632c-0.592,2.484-2.996,4.114-5.529,3.604
							c-4.014-0.829-8.014-2.567-11.833-5.212c-8.138-5.626-10.799-12.867-12.184-24.141c-0.367-3.186-0.672-6.72-0.977-10.68
							c-0.136-1.419-0.187-2.806-0.272-4.292c-0.152-2.818,1.824-5.784,4.629-6.636C422.462,78.272,425.451,79.814,425.176,82.716z"
							/>
						<path style="fill:#BA1A2E;" d="M423.955,90.537c0.376,1.796,0.804,3.507,1.266,5.152c0.189,1.718,0.564,3.465,0.975,5.098
							c-3.389,0.098-6.707,0.048-9.949-0.043c-0.367-3.186-0.672-6.72-0.977-10.68C417.98,90.244,420.939,90.448,423.955,90.537z"/>
						<path style="fill:#CE1531;" d="M385.715,95.296c-3.824-2.648-6.724-5.935-8.472-9.93c-1.092-2.497,0.211-6.283,3.004-8.262
							c2.83-1.949,5.395-1.012,6.899,1.131c4.336,6.149,10.852,9.01,18.201,9.946c3.702,0.483,7.517,0.393,11.592,0.094
							c4.07-0.304,8.23-0.957,12.352-1.865c2.751-0.605,4.575,2.289,4.219,5.1c-0.359,2.814-2.799,4.929-5.562,5.13
							C407.995,98.345,397.066,103.198,385.715,95.296z"/>
						<path style="opacity:0;fill:#FFFFFF;" d="M432.34,77.989c2.743,2.656,2.884,6.989,0.319,9.683
							c-2.434,2.813-6.764,3.084-9.669,0.608c-2.905-2.476-3.158-6.911-0.562-9.904C425.155,75.503,429.599,75.335,432.34,77.989z"
							/>
					</g>
				</g>
			</g>
			<g>
				<g>
					<path style="fill:#E9D9D0;" d="M160.539,225.902v-0.078c-0.544-4.665-1.166-9.329-1.943-13.916v-0.077
						c-1.788-10.418-4.12-20.602-6.997-30.631c-1.322-4.509-2.721-9.018-4.354-13.45c-3.42-9.951-7.463-19.669-12.128-29.076
						c-2.021-4.198-4.198-8.319-6.452-12.439v-0.078c-1.477-2.644-3.032-5.209-4.587-7.774c-3.809-6.375-7.93-12.594-12.284-18.659
						c0,0,0-0.078-0.077-0.078c-2.721-3.887-5.52-7.541-8.396-11.195c-6.141-7.619-12.594-14.849-19.514-21.768l-0.078-0.078
						c-0.466,0.389-0.933,0.855-1.321,1.322c-2.566,2.254-4.976,4.587-7.386,7.074c-2.643,2.644-5.286,5.364-7.774,8.163
						c-0.156,0.156-0.311,0.311-0.466,0.466c-0.156,0.156-0.311,0.233-0.389,0.389l0.078,0.077
						c6.452,6.453,12.517,13.216,18.192,20.369c2.643,3.343,5.209,6.764,7.619,10.185c0,0,0.077,0,0,0.077
						c5.053,6.919,9.718,14.149,13.838,21.613c0.466,0.855,0.933,1.71,1.399,2.566c2.099,3.654,4.043,7.463,5.909,11.272
						c4.121,8.552,7.774,17.337,10.884,26.433c1.399,3.965,2.721,7.93,3.887,12.05v0.078c2.643,9.096,4.664,18.425,6.219,27.91
						c0.699,4.198,1.244,8.396,1.71,12.594v0.078c1.011,8.785,1.477,17.647,1.477,26.666v1.866c0,4.276-0.155,8.552-0.466,12.75
						v0.077c-0.544,9.563-1.632,19.047-3.343,28.299v0.078c-0.699,4.198-1.555,8.319-2.566,12.439
						c-2.177,9.407-4.897,18.503-8.163,27.444c-1.399,4.043-2.954,8.007-4.664,11.895c-3.731,8.863-7.93,17.337-12.672,25.578v0.078
						c-2.099,3.731-4.354,7.308-6.686,10.884c-5.131,8.086-10.729,15.704-16.793,23.09l-0.078,0.078
						c-2.643,3.265-5.442,6.53-8.318,9.64c-1.944,2.099-3.965,4.276-5.986,6.297c-0.466,0.544-1.011,1.011-1.477,1.477
						c1.633,1.788,3.187,3.499,4.82,5.131c0.777,0.855,1.633,1.711,2.41,2.488l1.399,1.399c0.311,0.311,0.622,0.622,0.933,0.933
						c1.555,1.555,3.188,3.11,4.82,4.665c0.933,0.855,1.866,1.71,2.799,2.643c0.077,0,0.155,0.078,0.233,0.156l1.477-1.477
						c2.488-2.566,4.976-5.209,7.308-7.852l0.078-0.078c3.265-3.499,6.219-6.997,9.174-10.651l0.078-0.078
						c6.53-8.085,12.672-16.482,18.347-25.267c2.488-3.965,4.898-8.007,7.23-12.128c-0.078,0,0-0.078,0-0.078
						c1.399-2.41,2.721-4.82,3.965-7.23c3.576-6.841,6.919-13.76,9.874-20.913c0,0,0,0,0-0.077c1.866-4.276,3.576-8.63,5.131-13.061
						c3.576-9.795,6.531-19.747,8.863-30.086v-0.078c1.089-4.509,2.021-9.096,2.799-13.76c1.866-10.184,3.032-20.602,3.654-31.253
						c0.233-4.664,0.389-9.329,0.389-14.071v-1.244C162.172,245.804,161.628,235.853,160.539,225.902z"/>
				</g>
				<g>
					<g>
						<path style="opacity:0;fill:#FFFFFF;" d="M80.766,442.579c-3.287-3.072-6.451-6.205-9.554-9.462
							c2.611-1.597,6.052-1.352,8.448,0.891C82.026,436.22,82.425,439.845,80.766,442.579z"/>
					</g>
					<g>
						<path style="fill:#E0E0E0;" d="M122.287,444.416c-4.075-3.32-10.472-2.419-14.308,1.996
							c-3.832,4.419-4.187,10.693-0.375,14.394c3.727,3.624,10.453,3.021,14.591-1.74
							C126.336,454.308,126.362,447.735,122.287,444.416z"/>
						<path style="fill:#E0E0E0;" d="M60.508,393.392c-4.074-3.319-9.632-3.447-12.379-0.254c-2.744,3.196-2.175,8.517,1.636,12.217
							c3.727,3.624,9.53,3.975,12.58,0.437C65.397,402.255,64.583,396.711,60.508,393.392z"/>
						<path style="fill:#CE1531;" d="M103.959,408.062c-4.214,1.492-8.592,2.324-12.707,2.66c-1.759,0.144-3.486,0.192-5.155,0.142
							c-9.421-0.326-17.6-4.241-23.021-11.674c-1.52-2.07-3.931-3.245-6.254-2.136c-2.331,1.078-3.245,3.928-2.293,6.231
							c1.622,3.725,4.146,7.259,7.533,10.44c3.635,3.414,7.327,5.369,11.578,6.384c4.22,0.986,8.874,0.936,14.591,0.479
							c3.26-0.251,6.758-0.711,10.609-1.311c1.385-0.202,2.797-0.408,4.268-0.623c2.813-0.421,5.396-2.902,5.538-5.901
							C108.84,409.761,106.687,407.146,103.959,408.062z"/>
						<path style="fill:#BA1A2E;" d="M96.605,410.92c-1.853-0.005-3.633-0.078-5.353-0.198c-1.759,0.144-3.486,0.192-5.155,0.142
							c0.693,3.399,1.406,6.607,2.134,9.724c3.26-0.251,6.758-0.711,10.609-1.311C98.05,416.629,97.308,413.839,96.605,410.92z"/>
						<path style="fill:#CE1531;" d="M99.944,449.291c3.391,3.184,7.226,5.344,11.527,6.244c2.745,0.613,5.996-1.61,7.372-4.734
							c1.356-3.139-0.086-5.44-2.507-6.471c-6.95-2.978-11.091-8.731-13.49-15.674c-1.24-3.512-2.097-7.379-2.604-11.383
							c-0.512-4.01-0.652-8.145-0.757-12.461c-0.036-2.854-3.228-4.017-5.848-3.04c-2.572,1.018-4.225,3.773-3.869,6.497
							C92.337,428.181,89.862,439.875,99.944,449.291z"/>
						<path style="opacity:0;fill:#FFFFFF;" d="M107.161,400.121c-3.171-2.125-7.491-1.392-9.647,1.639
							c-2.121,3.057-1.481,7.345,1.517,9.644c3.061,2.346,7.453,1.667,9.716-1.587C111.044,406.588,110.332,402.246,107.161,400.121
							z"/>
					</g>
					<g>
						<path style="fill:#E0E0E0;" d="M150.809,403.106c-4.633-2.62-10.522-0.487-13.713,4.418
							c-3.156,4.927-2.201,11.336,2.109,14.298c4.353,2.991,10.634,1.099,14.035-4.219
							C156.674,412.305,155.327,405.655,150.809,403.106z"/>
						<path style="fill:#E0E0E0;" d="M81.309,363.232c-4.633-2.618-9.862-1.652-12.181,1.86c-2.285,3.531-0.576,8.84,3.733,11.801
							c4.354,2.991,9.88,2.2,12.411-1.722C87.835,371.267,85.828,365.782,81.309,363.232z"/>
						<path style="fill:#CE1531;" d="M126.689,370.404c-4.045,2.112-8.088,3.739-12.036,4.791c-1.702,0.443-3.446,0.753-5.115,0.977
							c-9.462,1.2-17.957-1.154-24.656-7.623c-1.861-1.791-4.421-2.535-6.467-1.021c-2.129,1.445-2.709,4.306-1.303,6.464
							c2.263,3.422,5.363,6.492,9.238,9.057c8.254,5.476,15.923,5.233,26.937,2.352c3.089-0.845,6.479-1.878,10.264-3.069
							c1.357-0.406,2.721-0.844,4.107-1.331c2.668-0.909,4.68-3.852,4.423-6.776C131.82,371.269,129.275,369.067,126.689,370.404z"
							/>
						<path style="fill:#BA1A2E;" d="M119.898,374.454c-1.804,0.32-3.549,0.56-5.245,0.742c-1.702,0.443-3.446,0.753-5.115,0.977
							c1.173,3.185,2.455,6.25,3.748,9.229c3.089-0.845,6.479-1.878,10.264-3.069C122.39,379.892,121.115,377.228,119.898,374.454z"
							/>
						<path style="fill:#CE1531;" d="M129.677,411.732c3.878,2.568,8.005,4.039,12.36,4.177c2.733,0.092,5.724-2.549,6.569-5.853
							c0.755-3.357-1.069-5.392-3.616-5.992c-7.315-1.739-12.393-6.731-15.999-13.212c-1.815-3.254-3.192-6.854-4.379-10.722
							c-1.237-3.896-2.184-8.006-2.882-12.173c-0.466-2.781-3.829-3.397-6.3-2.019c-2.473,1.382-3.52,4.436-2.675,7.078
							C118.565,392.164,118.115,404.118,129.677,411.732z"/>
						<path style="opacity:0;fill:#FFFFFF;" d="M128.421,362c-3.501-1.565-7.516-0.056-9.119,3.298
							c-1.697,3.309-0.331,7.433,3.047,9.21c3.378,1.777,7.583,0.36,9.387-3.169C133.444,367.765,131.889,363.55,128.421,362z"/>
					</g>
					<g>
						<path style="fill:#E0E0E0;" d="M172.074,357.583c-4.931-1.763-10.683,1.219-12.835,6.665
							c-2.105,5.467-0.4,11.486,4.436,13.713c4.709,2.172,10.901-0.621,13.183-6.518
							C179.185,365.566,177.041,359.359,172.074,357.583z"/>
						<path style="fill:#E0E0E0;" d="M96.813,330.09c-4.93-1.763-10.229-0.046-11.753,3.865c-1.479,3.931,0.786,8.732,5.622,10.959
							c4.71,2.173,10.341,0.597,11.997-3.763C104.378,336.808,101.78,331.867,96.813,330.09z"/>
						<path style="fill:#CE1531;" d="M142.663,329.421c-3.469,2.818-7.32,5.063-11.088,6.752c-1.611,0.722-3.223,1.343-4.814,1.853
							c-8.965,2.843-18.008,1.862-25.588-3.33c-2.122-1.443-4.788-1.748-6.611,0.064c-1.831,1.79-1.775,4.762-0.069,6.63
							c2.767,2.968,6.321,5.459,10.574,7.33c4.564,2.01,8.698,2.627,13.05,2.172c4.267-0.491,8.672-2.073,13.907-4.411
							c2.997-1.321,6.116-2.931,9.558-4.778c1.239-0.653,2.502-1.319,3.817-2.013c2.514-1.336,4.121-4.54,3.25-7.415
							C147.83,329.389,144.926,327.646,142.663,329.421z"/>
						<path style="fill:#BA1A2E;" d="M136.688,334.573c-1.749,0.613-3.452,1.139-5.114,1.6c-1.611,0.722-3.223,1.343-4.814,1.853
							c1.785,2.971,3.552,5.766,5.263,8.456c2.997-1.321,6.116-2.931,9.558-4.778C139.954,339.471,138.325,337.088,136.688,334.573z
							"/>
						<path style="fill:#CE1531;" d="M152.628,369.651c4.257,1.874,8.595,2.634,12.955,2.049c2.754-0.354,5.116-3.526,5.368-6.937
							c0.238-3.415-1.887-5.105-4.515-5.269c-7.55-0.488-13.369-4.534-17.939-10.279c-2.365-2.908-4.443-6.261-6.262-9.869
							c-1.819-3.609-3.331-7.459-4.877-11.492c-0.99-2.678-4.386-2.706-6.527-0.911c-2.08,1.819-2.718,4.966-1.475,7.413
							C138.429,352.263,139.984,364.128,152.628,369.651z"/>
						<path style="opacity:0;fill:#FFFFFF;" d="M143.021,320.865c-3.7-0.941-7.524,1.195-8.54,4.771
							c-0.975,3.589,1.064,7.417,4.656,8.582c3.67,1.189,7.581-0.92,8.624-4.745C148.845,325.661,146.72,321.806,143.021,320.865z"
							/>
					</g>
					<g>
						<path style="fill:#E0E0E0;" d="M185.15,309.053c-5.257-0.918-10.029,3.075-11.446,8.761
							c-1.322,5.705,1.751,11.435,6.775,12.777c5.131,1.369,10.389-2.528,11.813-8.687
							C193.807,315.764,190.248,309.94,185.15,309.053z"/>
						<path style="fill:#E0E0E0;" d="M106.308,294.771c-5.256-0.919-9.798,1.758-10.857,5.824c-0.967,4.085,2.451,8.518,7.475,9.859
							c5.132,1.37,10.045-1.229,11.113-5.768C115.196,300.164,111.406,295.656,106.308,294.771z"/>
						<path style="fill:#CE1531;" d="M151.449,286.322c-3.1,3.345-6.297,6.243-9.718,8.549c-1.49,0.982-2.997,1.864-4.5,2.633
							c-8.493,4.304-17.276,4.933-25.764,1.081c-2.364-1.066-4.997-0.904-6.443,1.201c-1.545,2.067-1.106,4.958,0.937,6.519
							c3.282,2.465,7.234,4.32,11.743,5.44c9.623,2.4,16.72-0.403,26.172-6.799c2.62-1.832,5.459-3.943,8.616-6.335
							c1.125-0.852,2.271-1.72,3.465-2.624c2.198-1.751,3.09-5.2,1.856-7.87C156.565,285.417,153.425,284.194,151.449,286.322z"/>
						<path style="fill:#BA1A2E;" d="M146.442,292.417c-1.602,0.905-3.111,1.724-4.711,2.454c-1.49,0.982-2.997,1.864-4.5,2.633
							c2.18,2.61,4.422,5.068,6.644,7.443c2.62-1.832,5.459-3.943,8.616-6.335C150.558,296.696,148.569,294.63,146.442,292.417z"/>
						<path style="fill:#CE1531;" d="M168.133,324.272c4.514,1.121,8.894,1.126,13.041-0.206c2.61-0.829,4.519-4.329,4.232-7.723
							c-0.388-3.412-2.816-4.724-5.407-4.434c-7.469,0.814-13.93-2.189-19.511-7.091c-2.789-2.457-5.356-5.398-7.704-8.634
							c-2.456-3.254-4.763-6.813-6.829-10.508c-1.383-2.466-4.753-1.919-6.607,0.208c-1.854,2.133-1.8,5.364-0.108,7.572
							C151.093,309.544,154.684,320.964,168.133,324.272z"/>
						<path style="opacity:0;fill:#FFFFFF;" d="M150.291,277.827c-3.86-0.307-6.997,2.474-7.52,6.158
							c-0.47,3.689,2.214,7.12,5.993,7.662c3.778,0.543,7.248-2.204,7.746-6.135C157.06,281.586,154.042,278.122,150.291,277.827z"
							/>
					</g>
					<g>
						<path style="fill:#E0E0E0;" d="M189.908,259.106c-5.256-0.02-9.627,4.7-9.788,10.54c-0.327,5.835,3.479,10.944,8.736,11.42
							c5.212,0.475,9.925-4.236,10.275-10.528C199.312,264.245,195.163,259.125,189.908,259.106z"/>
						<path style="fill:#E0E0E0;" d="M109.786,258.28c-5.255-0.019-9.62,3.386-9.704,7.608c-0.252,4.208,3.673,7.993,8.929,8.47
							c5.213,0.473,9.807-2.913,10.082-7.577C119.197,262.105,115.042,258.299,109.786,258.28z"/>
						<path style="fill:#CE1531;" d="M152.91,242.364c-2.511,3.816-5.304,7.211-8.262,10.059c-1.264,1.218-2.563,2.341-3.881,3.352
							c-7.726,5.671-16.346,7.778-25.312,5.405c-2.489-0.655-5.096-0.051-6.182,2.278c-0.542,1.158-0.558,2.431-0.148,3.568
							c0.356,1.132,1.125,2.13,2.255,2.723c3.615,1.876,7.805,3.036,12.439,3.377c9.898,0.736,16.552-3.223,24.652-11.13
							c2.277-2.247,4.888-4.804,7.478-7.689c0.939-1.027,1.896-2.075,2.892-3.165c1.907-2.095,2.264-5.643,0.64-8.07
							C157.79,240.62,154.407,239.941,152.91,242.364z"/>
						<path style="fill:#BA1A2E;" d="M148.899,249.213c-1.432,1.16-2.849,2.222-4.251,3.21c-1.264,1.218-2.563,2.341-3.881,3.352
							c2.572,2.207,5.142,4.255,7.704,6.22c2.277-2.247,4.888-4.804,7.478-7.689C153.653,252.744,151.303,251.041,148.899,249.213z"
							/>
						<path style="fill:#CE1531;" d="M175.642,276.935c4.639,0.342,8.973-0.393,12.873-2.4c1.225-0.631,2.186-1.88,2.717-3.388
							c0.478-1.509,0.537-3.276,0.065-4.919c-0.943-3.289-3.519-4.171-6.043-3.451c-7.26,2.054-14.11,0.188-20.372-3.701
							c-6.158-3.907-12.32-9.841-17.496-16.431c-1.871-2.194-5.021-1.098-6.48,1.309c-1.511,2.415-0.972,5.596,1.033,7.491
							c3.71,3.442,6.723,6.72,9.434,9.692c2.744,2.973,5.243,5.641,7.737,7.898C163.951,273.543,168.753,276.425,175.642,276.935z"
							/>
						<path style="opacity:0;fill:#FFFFFF;" d="M150.29,234.184c-3.802,0.338-6.657,3.619-6.374,7.328
							c0.258,3.71,3.307,6.653,7.16,6.553c3.779-0.096,6.912-3.39,6.641-7.341C157.42,236.773,154.092,233.846,150.29,234.184z"/>
					</g>
					<g>
						<path style="fill:#E0E0E0;" d="M186.236,209.083c-5.12,0.854-8.665,6.25-7.956,12.059c0.829,5.798,5.311,10.207,10.574,9.8
							c5.216-0.404,9.202-5.839,8.319-12.096C196.406,212.579,191.484,208.211,186.236,209.083z"/>
						<path style="fill:#E0E0E0;" d="M107.11,221.702c-5.119,0.852-8.882,4.932-8.37,9.107c0.629,4.16,5.009,7.253,10.271,6.845
							c5.218-0.402,9.306-4.522,8.623-9.141C117.064,223.879,112.359,220.829,107.11,221.702z"/>
						<path style="fill:#CE1531;" d="M146.858,198.796c-0.877,2.085-1.815,4.072-2.858,5.955c-1.107,1.896-2.285,3.68-3.531,5.337
							c-1.062,1.416-2.174,2.744-3.321,3.965c-6.421,6.844-14.783,10.39-23.936,9.544c-2.552-0.229-5.034,0.804-5.761,3.28
							c-0.729,2.459,0.694,5.04,3.158,5.835c3.962,1.235,8.188,1.691,12.84,1.25c10.007-0.941,15.55-5.91,22.449-15.09
							c1.995-2.615,3.814-5.521,5.995-8.822c0.77-1.174,1.554-2.371,2.371-3.618c0.78-1.199,1.125-2.688,1.027-4.146
							c-0.163-1.445-0.775-2.856-1.817-3.907C151.365,196.253,147.983,196.141,146.858,198.796z"/>
						<path style="fill:#BA1A2E;" d="M144.174,206.199c-1.235,1.388-2.472,2.677-3.705,3.889c-1.062,1.416-2.174,2.744-3.321,3.965
							c2.934,1.738,5.98,3.298,8.75,4.819c1.995-2.615,3.814-5.521,5.995-8.822C149.392,208.891,146.818,207.602,144.174,206.199z"
							/>
						<path style="fill:#CE1531;" d="M175.18,229.07c4.605-0.436,8.855-1.891,12.279-4.514c2.169-1.643,2.761-5.568,1.323-8.667
							c-1.436-3.098-4.11-3.539-6.49-2.403c-6.877,3.254-13.817,2.538-20.726-0.236c-3.474-1.39-6.907-3.309-10.238-5.579
							c-1.666-1.135-3.302-2.358-4.913-3.649c-1.683-1.276-3.337-2.62-4.954-4.015c-2.157-1.86-5.143-0.231-6.15,2.382
							c-0.504,1.31-0.46,2.717-0.001,3.989c0.394,1.285,1.212,2.435,2.341,3.201c4.095,2.791,7.753,5.495,10.977,7.962
							c3.155,2.478,6.025,4.697,8.828,6.512C163.112,227.676,168.342,229.712,175.18,229.07z"/>
						<path style="opacity:0;fill:#FFFFFF;" d="M143.018,191.145c-3.638,0.965-5.989,4.704-5.143,8.324
							c0.825,3.625,4.579,5.955,8.271,5.227c3.798-0.75,6.078-4.472,5.199-8.337C150.443,192.501,146.76,190.154,143.018,191.145z"
							/>
					</g>
					<g>
						<path style="fill:#E0E0E0;" d="M174.077,160.32c-5.016,1.749-7.34,7.596-5.723,13.225c1.609,5.631,7.025,9.16,12.121,7.872
							c5.095-1.286,7.85-7.266,6.108-13.344C184.831,161.999,178.985,158.605,174.077,160.32z"/>
						<path style="fill:#E0E0E0;" d="M98.252,186.217c-5.015,1.749-7.781,6.324-6.64,10.364c1.132,4.042,6.216,6.265,11.311,4.979
							c5.096-1.287,8.182-5.962,6.918-10.45C108.564,186.624,103.16,184.501,98.252,186.217z"/>
						<path style="fill:#CE1531;" d="M133.593,156.856c-1.086,4.435-2.534,8.548-4.353,12.21c-0.758,1.559-1.703,3.084-2.631,4.483
							c-5.354,7.903-12.735,12.729-22.012,13.492c-2.573,0.216-4.823,1.648-5.041,4.183c-0.276,2.535,1.441,4.869,3.998,5.235
							c4.058,0.559,8.408,0.258,12.893-0.958c9.549-2.578,14.488-8.51,19.558-18.674c1.408-2.879,2.874-6.109,4.481-9.741
							c0.599-1.291,1.135-2.592,1.698-3.96c1.079-2.605,0.199-6.061-2.165-7.799C137.63,153.57,134.297,154.029,133.593,156.856z"/>
						<path style="fill:#BA1A2E;" d="M132.148,164.634c-0.952,1.567-1.924,3.037-2.907,4.432c-0.758,1.559-1.703,3.084-2.631,4.483
							c3.163,1.222,6.308,2.282,9.395,3.278c1.408-2.879,2.874-6.109,4.481-9.741C137.895,166.343,135.018,165.556,132.148,164.634z
							"/>
						<path style="fill:#CE1531;" d="M166.6,181.906c4.489-1.216,8.321-3.345,11.306-6.529c1.864-1.99,1.902-6-0.069-8.805
							c-2.02-2.787-4.752-2.761-6.884-1.243c-6.138,4.35-13.238,4.867-20.48,3.295c-3.648-0.783-7.231-2.136-10.952-3.786
							c-3.74-1.643-7.45-3.645-11.038-5.871c-2.395-1.485-5.077,0.636-5.675,3.402c-0.596,2.771,1.004,5.574,3.544,6.683
							C144.581,177.316,153.263,185.555,166.6,181.906z"/>
						<path style="opacity:0;fill:#FFFFFF;" d="M128.416,150.011c-3.481,1.596-5.016,5.618-3.532,9.026
							c1.362,3.46,5.358,5.156,8.923,3.791c3.565-1.366,5.277-5.462,3.82-9.148C136.048,150.046,131.875,148.424,128.416,150.011z"
							/>
					</g>
					<g>
						<path style="fill:#E0E0E0;" d="M153.895,114.302c-4.548,2.524-6.131,8.827-3.458,14.035c2.735,5.178,8.364,7.879,13.234,5.711
							c4.734-2.102,6.739-8.61,3.798-14.203C164.588,114.222,158.538,111.725,153.895,114.302z"/>
						<path style="fill:#E0E0E0;" d="M83.574,152.708c-4.546,2.525-6.779,7.655-4.843,11.384c1.998,3.701,7.079,5.173,11.948,3.006
							c4.735-2.103,7.288-7.383,5.084-11.499C93.619,151.456,88.218,150.132,83.574,152.708z"/>
						<path style="fill:#CE1531;" d="M113.335,117.813c-0.19,4.476-0.999,8.822-2.243,12.784c-0.522,1.688-1.121,3.31-1.79,4.843
							c-3.757,8.602-10.484,14.763-19.379,17.027c-2.484,0.642-4.474,2.444-4.316,5.013c0.14,2.557,2.389,4.488,4.942,4.428
							c4.054-0.121,8.27-1.148,12.482-3.109c4.52-2.103,7.718-4.806,10.241-8.374c2.432-3.525,4.165-7.886,5.863-13.363
							c0.991-3.126,1.81-6.516,2.713-10.332c0.328-1.362,0.663-2.751,1.012-4.198c0.679-2.785-0.71-6.077-3.432-7.328
							C116.728,113.91,113.503,114.938,113.335,117.813z"/>
						<path style="fill:#BA1A2E;" d="M113.271,125.696c-0.696,1.72-1.426,3.347-2.179,4.901c-0.522,1.688-1.121,3.31-1.79,4.843
							c3.396,0.628,6.694,1.128,9.834,1.623c0.991-3.126,1.81-6.516,2.713-10.332C119.1,126.479,116.238,126.129,113.271,125.696z"
							/>
						<path style="fill:#CE1531;" d="M150.139,136.866c4.217-1.963,7.651-4.722,10.091-8.385c1.527-2.292,0.724-6.168-1.674-8.606
							c-2.405-2.433-5.076-1.951-6.934-0.085c-5.357,5.355-12.214,7.046-19.572,6.704c-3.744-0.142-7.629-0.796-11.535-1.813
							c-3.886-1.03-7.822-2.408-11.857-3.919c-2.659-1.029-4.925,1.505-4.996,4.302c-0.018,2.772,1.97,5.302,4.604,5.998
							c9.752,2.438,17.026,5.463,23.53,6.992C138.37,139.557,143.847,139.792,150.139,136.866z"/>
						<path style="opacity:0;fill:#FFFFFF;" d="M107.155,111.891c-3.127,2.141-4.072,6.439-2.06,9.566
							c2.022,3.122,6.286,4.092,9.528,2.165c3.32-1.974,4.275-6.278,2.122-9.605C114.602,110.685,110.328,109.719,107.155,111.891z"
							/>
					</g>
					<g>
						<path style="fill:#E0E0E0;" d="M126.133,72.473c-4.142,3.321-4.394,9.609-0.987,14.365c3.399,4.762,9.68,6.269,14.051,3.351
							c4.371-2.917,4.97-9.467,1.3-14.601C136.818,70.462,130.189,69.216,126.133,72.473z"/>
						<path style="fill:#E0E0E0;" d="M63.303,122.196c-4.142,3.321-5.223,8.572-2.786,12.004c2.427,3.438,7.968,3.838,12.339,0.921
							c4.372-2.918,5.711-8.361,3.013-12.171C73.158,119.148,67.359,118.939,63.303,122.196z"/>
						<path style="fill:#CE1531;" d="M86.826,82.716c0.449,4.546,0.451,8.91-0.045,12.973c-0.189,1.718-0.564,3.465-0.975,5.098
							c-2.41,9.24-7.754,16.261-16.244,20.074c-2.354,1.061-3.996,3.164-3.354,5.632c0.592,2.484,2.996,4.114,5.529,3.604
							c4.014-0.829,8.014-2.567,11.834-5.212c8.138-5.626,10.799-12.867,12.183-24.141c0.367-3.186,0.672-6.72,0.977-10.68
							c0.136-1.419,0.187-2.806,0.272-4.292c0.152-2.818-1.824-5.784-4.629-6.636C89.54,78.272,86.551,79.814,86.826,82.716z"/>
						<path style="fill:#BA1A2E;" d="M88.047,90.537c-0.376,1.796-0.804,3.507-1.266,5.152c-0.189,1.718-0.564,3.465-0.975,5.098
							c3.389,0.098,6.707,0.048,9.949-0.043c0.367-3.186,0.672-6.72,0.977-10.68C94.022,90.244,91.063,90.448,88.047,90.537z"/>
						<path style="fill:#CE1531;" d="M126.287,95.296c3.824-2.648,6.724-5.935,8.472-9.93c1.092-2.497-0.211-6.283-3.005-8.262
							c-2.83-1.949-5.395-1.012-6.899,1.131c-4.336,6.149-10.852,9.01-18.201,9.946c-3.702,0.483-7.517,0.393-11.592,0.094
							c-4.07-0.304-8.23-0.957-12.352-1.865c-2.751-0.605-4.575,2.289-4.219,5.1c0.359,2.814,2.799,4.929,5.562,5.13
							C104.006,98.345,114.935,103.198,126.287,95.296z"/>
						<path style="opacity:0;fill:#FFFFFF;" d="M79.662,77.989c-2.743,2.656-2.884,6.989-0.319,9.683
							c2.434,2.813,6.764,3.084,9.669,0.608c2.906-2.476,3.159-6.911,0.563-9.904C86.846,75.503,82.403,75.335,79.662,77.989z"/>
					</g>
				</g>
			</g>
		</g>
	</g>
	<path style="opacity:0.06;fill:#040000;" d="M507.886,210.365c0.782,4.17,1.412,8.319,1.955,12.512c-0.022,0.022,0,0.043,0,0.043
		c0.043,0.13,0.043,0.304,0.043,0.478c0.717,5.409,1.238,10.883,1.586,16.356c0.087,1.39,0.152,2.759,0.239,4.149
		c0.391,8.167,0.391,16.378-0.022,24.567c-0.043,0.912-0.087,1.824-0.152,2.715c-0.304,5.257-0.76,10.535-1.434,15.77
		c-0.086,0.826-0.174,1.651-0.326,2.411c-0.022,0.022-0.043,0.044-0.044,0.087c-0.456,3.584-0.934,7.06-1.542,10.578
		c-8.689,50.177-32.43,98.247-71.16,136.977c-46.81,46.81-107.262,71.681-168.561,74.679c-2.346,0.087-4.692,0.174-7.038,0.217
		c-4.497,0.109-8.95,0.087-13.446-0.065c-1.368-0.022-2.737-0.087-4.105-0.152c-61.424-2.91-121.98-27.8-168.876-74.69
		L437.019,74.984C475.33,113.299,498.96,160.778,507.886,210.365z"/>
</g>
</svg>
